# xmcd CD database file
#
# Track frame offsets:
#	150
#	11433
#	19485
#	29710
#	38726
#	48357
#	56414
#	67588
#	79137
#	86749
#	94640
#
# Disc length: 1323 seconds
#
# Revision: 0
# Processed by: cddbd v1.5.2PL0 Copyright (c) Steve Scherf et al.
# Submitted via: CDex 1.51
#
DISCID=8005290b
DTITLE=Luther Wright and the Wrongs - Instrumentality
DYEAR=2006
DGENRE=Country
TTITLE0=The Groovy Grotto
TTITLE1=Fiddle Hickey
TTITLE2=Tumbler Ridge
TTITLE3=Joe's Waltz
TTITLE4=The 7 Seas
TTITLE5=Yankee Doodle Dandy
TTITLE6=Howdoyoulikeitnow?
TTITLE7=The Colored Aristocracy
TTITLE8=Goodnight Ladies
TTITLE9=The Sorrow Boogie
TTITLE10=Betty from Ohio
EXTD=YEAR: 2006
EXTT0=
EXTT1=
EXTT2=
EXTT3=
EXTT4=
EXTT5=
EXTT6=
EXTT7=
EXTT8=
EXTT9=
EXTT10=
PLAYORDER=
